# xmcd CD database file
#
# Track frame offsets:
#	150
#	29505
#	48562
#	68777
#	87670
#	110220
#	144080
#	169140
#	199917
#
# Disc length: 2940 seconds
#
# Revision: 5
# Processed by: cddbd v1.5.2PL0 Copyright (c) Steve Scherf et al.
# Submitted via: CDex 1.70beta3
#
DISCID=850b7a09
DTITLE=中島みゆき - 中島みゆき
DYEAR=1988
DGENRE=Japanese Folk
TTITLE0=湾岸２４時
TTITLE1=御機嫌如何
TTITLE2=土用波
TTITLE3=泥は降りしきる
TTITLE4=ミュージシャン
TTITLE5=黄色い犬
TTITLE6=仮面
TTITLE7=クレンジング・クリーム
TTITLE8=ローリング
EXTD=YEAR: 1988
EXTT0=
EXTT1=
EXTT2=
EXTT3=
EXTT4=
EXTT5=
EXTT6=
EXTT7=
EXTT8=
PLAYORDER=
